<?xml version="1.0" standalone="no"?>
<!DOCTYPE svg PUBLIC "-//W3C//DTD SVG 20010904//EN"
 "http://www.w3.org/TR/2001/REC-SVG-20010904/DTD/svg10.dtd">
<svg version="1.0" xmlns="http://www.w3.org/2000/svg"
 width="100" height="100" viewBox="0 0"
 preserveAspectRatio="xMidYMid meet">
<metadata>
Created by potrace 1.10, written by Peter Selinger 2001-2011
</metadata>
<g transform="translate(0.000000,1500.000000) scale(0.100000,-0.100000)"
fill="#ffffff" stroke="none">
<path d="M2715 7411 c-120 -41 -206 -104 -245 -181 -25 -49 -50 -137 -50 -176
0 -89 71 -216 152 -272 84 -57 161 -81 373 -118 149 -26 215 -68 215 -136 0
-72 -100 -114 -255 -106 -129 7 -215 63 -215 141 0 50 -21 58 -149 55 -115 -3
-116 -3 -119 -27 -5 -30 24 -143 48 -191 45 -88 144 -171 256 -211 50 -19 80
-22 204 -22 199 0 291 25 387 108 57 48 90 110 103 190 26 165 -55 310 -219
391 -65 32 -76 35 -316 81 -125 24 -195 71 -195 131 0 41 56 85 126 100 169
34 305 -11 347 -116 9 -22 23 -42 32 -46 25 -9 198 -7 214 3 22 14 6 112 -30
184 -51 105 -134 172 -265 217 -77 27 -322 27 -399 1z"/>
<path d="M3552 7368 c-9 -9 -12 -156 -12 -600 0 -570 1 -588 19 -598 24 -12
240 -13 260 -1 10 7 13 51 12 220 -1 136 2 218 9 231 10 20 18 20 183 18 l172
-3 3 -225 c2 -197 4 -227 19 -237 19 -15 239 -18 261 -5 10 7 13 130 12 601 0
326 -2 597 -5 602 -8 12 -242 11 -266 -1 -18 -10 -19 -23 -19 -228 0 -156 -3
-221 -12 -230 -8 -8 -60 -12 -169 -12 -132 0 -160 3 -174 16 -14 14 -16 45
-14 229 0 118 -2 218 -6 224 -9 16 -257 15 -273 -1z"/>
</g>
</svg>
